<svg width="77" height="77" viewBox="0 0 77 77" fill="none" xmlns="http://www.w3.org/2000/svg">
<g clip-path="url(#clip0_131_116)">
<path d="M77 38.5C77 17.237 59.763 0 38.5 0C17.237 0 0 17.237 0 38.5C0 57.7165 14.0789 73.644 32.4844 76.5321V49.6289H22.709V38.5H32.4844V30.018C32.4844 20.3689 38.2322 15.0391 47.0263 15.0391C51.2387 15.0391 55.6445 15.791 55.6445 15.791V25.2656H50.7897C46.0071 25.2656 44.5156 28.2333 44.5156 31.278V38.5H55.1934L53.4864 49.6289H44.5156V76.5321C62.9211 73.644 77 57.7165 77 38.5Z" fill="#1877F2"/>
<path d="M53.4864 49.6289L55.1934 38.5H44.5156V31.278C44.5156 28.2333 46.0071 25.2656 50.7897 25.2656H55.6445V15.791C55.6445 15.791 51.2387 15.0391 47.0263 15.0391C38.2322 15.0391 32.4844 20.3689 32.4844 30.018V38.5H22.709V49.6289H32.4844V76.5321C36.4705 77.156 40.5295 77.156 44.5156 76.5321V49.6289H53.4864Z" fill="white"/>
</g>
<defs>
<clipPath id="clip0_131_116">
<rect width="77" height="77" fill="white"/>
</clipPath>
</defs>
</svg>
