<svg width="85" height="91" viewBox="0 0 85 91" fill="none" xmlns="http://www.w3.org/2000/svg">
<path d="M44.0407 54.1565L10.3329 31.2667C8.59026 30.0369 7.36991 28.1261 6.93465 25.9456C6.49939 23.7652 6.88402 21.4895 8.00574 19.6087C9.12745 17.7279 10.8965 16.3924 12.932 15.8898C14.9674 15.3872 17.1064 15.7576 18.8884 16.9214L43.6181 33.7133L65.822 17.1278C67.5543 15.8751 69.6789 15.3999 71.7368 15.8047C73.7948 16.2095 75.6209 17.4619 76.8208 19.2913C78.0208 21.1207 78.4981 23.3804 78.1498 25.5822C77.8016 27.7841 76.6556 29.7514 74.9595 31.0592L44.0407 54.1565Z" fill="#EA4435"/>
<path d="M73.0469 75.1119H62.4219L62.4219 24.0925C62.4219 21.8373 63.2614 19.6745 64.7559 18.0798C66.2503 16.4851 68.2772 15.5893 70.3906 15.5893C72.5041 15.5893 74.531 16.4851 76.0254 18.0798C77.5198 19.6745 78.3594 21.8373 78.3594 24.0925V69.4431C78.3594 70.9466 77.7997 72.3885 76.8034 73.4516C75.8071 74.5147 74.4558 75.1119 73.0469 75.1119Z" fill="#00AC47"/>
<path d="M78.2431 22.8613C78.2198 22.6912 78.2216 22.5174 78.1884 22.3477C78.1374 22.0875 78.0426 21.8471 77.9698 21.596C77.8993 21.3085 77.8143 21.0254 77.7153 20.7476C77.6622 20.613 77.5804 20.4948 77.5201 20.3639C77.3548 19.986 77.1636 19.6218 76.948 19.274C76.8417 19.1093 76.7089 18.969 76.5915 18.8132C76.39 18.5298 76.1722 18.2601 75.9394 18.0056C75.7627 17.8222 75.5614 17.6689 75.3693 17.5037C75.1652 17.3169 74.9525 17.1412 74.7318 16.9773C74.5212 16.8305 74.2906 16.7174 74.0678 16.5921C73.833 16.4614 73.6029 16.3192 73.3586 16.2148C73.1224 16.1134 72.8706 16.0487 72.6238 15.9714C72.3771 15.894 72.1316 15.8013 71.8782 15.7511C71.5643 15.6973 71.2476 15.6633 70.93 15.6491C70.7283 15.6341 70.5286 15.5964 70.3262 15.5981C69.9504 15.6098 69.5759 15.65 69.2055 15.7185C69.056 15.7423 68.9054 15.7404 68.7569 15.7732C68.2557 15.9367 67.7558 16.1048 67.2574 16.2778C67.1206 16.3401 67.0008 16.4328 66.8683 16.5031C65.5194 17.1747 64.3817 18.2489 63.5926 19.5957C62.8036 20.9425 62.397 22.5044 62.422 24.0925V40.4244L74.9595 31.0587C76.1907 30.177 77.156 28.9334 77.7386 27.4784C78.3213 26.0235 78.497 24.4201 78.2431 22.8613Z" fill="#FFBA00"/>
<path d="M14.6094 15.5893C16.7228 15.5893 18.7497 16.4852 20.2441 18.0798C21.7386 19.6745 22.5781 21.8373 22.5781 24.0925V75.112H11.9531C10.5442 75.112 9.19291 74.5147 8.19662 73.4516C7.20033 72.3885 6.64063 70.9466 6.64062 69.4431V24.0925C6.64063 21.8373 7.48019 19.6745 8.97462 18.0798C10.469 16.4852 12.4959 15.5893 14.6094 15.5893Z" fill="#4285F4"/>
<path d="M6.75742 22.8612C6.7808 22.6912 6.77894 22.5174 6.81214 22.3476C6.86314 22.0874 6.95797 21.8471 7.03075 21.596C7.10131 21.3086 7.18625 21.0255 7.28522 20.7479C7.33834 20.6133 7.42016 20.4951 7.48072 20.3641C7.64589 19.9861 7.83713 19.6218 8.05288 19.274C8.15913 19.1093 8.29194 18.969 8.40934 18.8131C8.61073 18.5298 8.82843 18.2601 9.06119 18.0056C9.23783 17.8222 9.43917 17.6689 9.63148 17.5036C9.83553 17.3168 10.0483 17.1411 10.269 16.9773C10.4796 16.8305 10.7102 16.7174 10.933 16.5921C11.1634 16.4531 11.4001 16.3265 11.6423 16.2128C11.8787 16.1114 12.1305 16.0467 12.377 15.9694C12.6235 15.892 12.8692 15.7993 13.1226 15.7491C13.4365 15.6953 13.7532 15.6613 14.0709 15.6471C14.2728 15.6321 14.4722 15.5944 14.6746 15.5961C15.0504 15.6077 15.4249 15.648 15.7953 15.7165C15.9449 15.7403 16.0955 15.7384 16.2442 15.7712C16.5013 15.8411 16.7549 15.9251 17.0039 16.0229C17.2543 16.0939 17.5012 16.1783 17.7437 16.2758C17.8802 16.3381 18 16.4308 18.1328 16.5011C18.4771 16.6737 18.8093 16.8726 19.1268 17.0963C20.191 17.876 21.0613 18.9204 21.6626 20.1393C22.264 21.3582 22.5783 22.715 22.5783 24.0925V40.4244L10.0408 31.0592C8.80985 30.1772 7.84467 28.9337 7.26198 27.4788C6.67929 26.0239 6.50404 24.4201 6.75742 22.8612Z" fill="#C52528"/>
</svg>
