<svg width="68" height="68" viewBox="0 0 68 68" fill="none" xmlns="http://www.w3.org/2000/svg">
<g clip-path="url(#clip0_131_115)">
<path d="M17.2433 67.7593C14.6131 67.73 12.0077 67.2476 9.54133 66.3333C7.7403 65.6676 6.11081 64.6078 4.772 63.2313C3.39185 61.8952 2.33046 60.2653 1.66667 58.4627C0.753169 55.9964 0.271455 53.3912 0.242667 50.7613C0.0406667 46.3893 0 45.078 0 34C0 22.922 0.0446667 21.6153 0.240667 17.24C0.272948 14.6112 0.755255 12.0073 1.66667 9.54133C2.33369 7.74 3.39357 6.10986 4.76933 4.76933C6.10648 3.39042 7.73674 2.33001 9.53933 1.66667C12.0057 0.752411 14.6111 0.270019 17.2413 0.240667C21.6147 0.0406667 22.928 0 34 0C45.072 0 46.3847 0.0446667 50.76 0.240667C53.3895 0.27272 55.9941 0.75503 58.4607 1.66667C60.2625 2.33089 61.8923 3.39093 63.23 4.76867C64.6082 6.10683 65.6686 7.73706 66.3333 9.53933C67.2478 12.0056 67.7304 14.6111 67.76 17.2413C67.96 21.6167 68.0007 22.9267 68.0007 34.0013C68.0007 45.076 67.96 46.386 67.76 50.7613C67.7283 53.3911 67.2457 55.996 66.3333 58.4627C65.6432 60.2514 64.5861 61.8759 63.2302 63.2315C61.8743 64.587 60.2496 65.6436 58.4607 66.3333C55.9943 67.2478 53.3889 67.7304 50.7587 67.76C46.3873 67.96 45.0733 68.0007 33.9987 68.0007C22.924 68.0007 21.614 67.962 17.2427 67.76" fill="url(#paint0_radial_131_115)"/>
<path d="M17.2433 67.7593C14.6131 67.73 12.0077 67.2476 9.54133 66.3333C7.7403 65.6676 6.11081 64.6078 4.772 63.2313C3.39185 61.8952 2.33046 60.2653 1.66667 58.4627C0.753169 55.9964 0.271455 53.3912 0.242667 50.7613C0.0406667 46.3893 0 45.078 0 34C0 22.922 0.0446667 21.6153 0.240667 17.24C0.272948 14.6112 0.755255 12.0073 1.66667 9.54133C2.33369 7.74 3.39357 6.10986 4.76933 4.76933C6.10648 3.39042 7.73674 2.33001 9.53933 1.66667C12.0057 0.752411 14.6111 0.270019 17.2413 0.240667C21.6147 0.0406667 22.928 0 34 0C45.072 0 46.3847 0.0446667 50.76 0.240667C53.3895 0.27272 55.9941 0.75503 58.4607 1.66667C60.2625 2.33089 61.8923 3.39093 63.23 4.76867C64.6082 6.10683 65.6686 7.73706 66.3333 9.53933C67.2478 12.0056 67.7304 14.6111 67.76 17.2413C67.96 21.6167 68.0007 22.9267 68.0007 34.0013C68.0007 45.076 67.96 46.386 67.76 50.7613C67.7283 53.3911 67.2457 55.996 66.3333 58.4627C65.6432 60.2514 64.5861 61.8759 63.2302 63.2315C61.8743 64.587 60.2496 65.6436 58.4607 66.3333C55.9943 67.2478 53.3889 67.7304 50.7587 67.76C46.3873 67.96 45.0733 68.0007 33.9987 68.0007C22.924 68.0007 21.614 67.962 17.2427 67.76" fill="url(#paint1_radial_131_115)"/>
<path d="M25.6513 34.1446C25.6514 32.4792 26.1454 30.8511 27.0708 29.4664C27.9962 28.0817 29.3115 27.0025 30.8502 26.3653C32.389 25.7281 34.0822 25.5615 35.7156 25.8866C37.3491 26.2117 38.8494 27.0139 40.0269 28.1917C41.2045 29.3695 42.0063 30.8701 42.331 32.5036C42.6557 34.1371 42.4887 35.8302 41.8512 37.3688C41.2136 38.9074 40.1341 40.2224 38.7491 41.1475C37.3642 42.0726 35.7361 42.5662 34.0706 42.566C31.8374 42.5656 29.6958 41.6782 28.1169 40.0989C26.538 38.5196 25.6511 36.3778 25.6513 34.1446ZM21.0986 34.1446C21.0986 36.7103 21.8594 39.2183 23.2848 41.3515C24.7102 43.4847 26.7361 45.1474 29.1064 46.1292C31.4767 47.111 34.085 47.3679 36.6013 46.8674C39.1176 46.3669 41.429 45.1314 43.2432 43.3172C45.0574 41.5031 46.2928 39.1917 46.7933 36.6754C47.2939 34.159 47.037 31.5508 46.0552 29.1805C45.0733 26.8101 43.4107 24.7842 41.2774 23.3588C39.1442 21.9334 36.6362 21.1726 34.0706 21.1726C32.3671 21.1725 30.6802 21.508 29.1063 22.1599C27.5324 22.8118 26.1024 23.7673 24.8978 24.9718C23.6932 26.1764 22.7377 27.6065 22.0859 29.1804C21.434 30.7542 21.0985 32.4411 21.0986 34.1446ZM44.5246 20.6586C44.5243 21.2582 44.7019 21.8443 45.0347 22.343C45.3676 22.8416 45.8409 23.2304 46.3947 23.46C46.9485 23.6897 47.5579 23.75 48.146 23.6333C48.7341 23.5166 49.2743 23.2281 49.6985 22.8044C50.1226 22.3806 50.4115 21.8406 50.5287 21.2527C50.646 20.6647 50.5862 20.0552 50.357 19.5012C50.1278 18.9472 49.7395 18.4736 49.2412 18.1403C48.7428 17.807 48.1568 17.6289 47.5573 17.6286C46.7536 17.629 45.983 17.9483 45.4146 18.5164C44.8463 19.0845 44.5266 19.855 44.5259 20.6586M23.8659 54.708C22.264 54.6904 20.6771 54.3972 19.1746 53.8413C18.085 53.4213 17.0954 52.7778 16.2695 51.9523C15.4436 51.1267 14.7997 50.1374 14.3793 49.048C13.8231 47.5456 13.5299 45.9586 13.5126 44.3566C13.3899 41.694 13.3659 40.894 13.3659 34.148C13.3659 27.402 13.3926 26.604 13.5126 23.9386C13.532 22.3369 13.8251 20.7503 14.3793 19.2473C14.7992 18.1573 15.4429 17.1675 16.2688 16.3416C17.0948 15.5156 18.0846 14.8719 19.1746 14.452C20.677 13.8958 22.264 13.6027 23.8659 13.5853C26.5286 13.4626 27.3286 13.4386 34.0719 13.4386C40.8153 13.4386 41.6159 13.4646 44.2813 13.586C45.883 13.6054 47.4696 13.8985 48.9726 14.4526C50.0625 14.8726 51.0524 15.5163 51.8783 16.3423C52.7042 17.1682 53.3479 18.158 53.7679 19.248C54.324 20.7504 54.6172 22.3374 54.6346 23.9393C54.7573 26.606 54.7813 27.402 54.7813 34.1486C54.7813 40.8953 54.7566 41.6926 54.6346 44.358C54.6159 45.9598 54.3228 47.5465 53.7679 49.0493C53.3475 50.1387 52.7036 51.1281 51.8777 51.9536C51.0518 52.7792 50.0622 53.4226 48.9726 53.8426C47.4702 54.3988 45.8832 54.6919 44.2813 54.7093C41.6186 54.832 40.8186 54.856 34.0719 54.856C27.3253 54.856 26.5279 54.8313 23.8659 54.7093M23.6566 9.03664C21.5605 9.07785 19.4866 9.47459 17.5233 10.21C15.8449 10.8589 14.3207 11.8513 13.0483 13.1237C11.776 14.3961 10.7835 15.9203 10.1346 17.5986C9.39931 19.562 9.00258 21.6359 8.96126 23.732C8.8366 26.4253 8.80859 27.2866 8.80859 34.1473C8.80859 41.008 8.83726 41.8686 8.96126 44.5626C9.00257 46.6587 9.3993 48.7326 10.1346 50.696C10.7835 52.3743 11.776 53.8985 13.0484 55.1708C14.3208 56.4432 15.8449 57.4357 17.5233 58.0846C19.4867 58.8197 21.5605 59.2164 23.6566 59.258C26.3513 59.3806 27.2113 59.4106 34.0719 59.4106C40.9326 59.4106 41.7933 59.382 44.4873 59.258C46.5834 59.2166 48.6572 58.8198 50.6206 58.0846C52.2989 57.4357 53.8231 56.4432 55.0955 55.1708C56.3678 53.8985 57.3603 52.3743 58.0093 50.696C58.7455 48.7329 59.1423 46.6588 59.1826 44.5626C59.3053 41.8673 59.3333 41.008 59.3333 34.1473C59.3333 27.2866 59.3046 26.426 59.1826 23.732C59.1414 21.6359 58.7446 19.5619 58.0093 17.5986C57.3603 15.9206 56.3681 14.3966 55.0961 13.1243C53.8241 11.852 52.3004 10.8593 50.6226 10.21C48.6594 9.47411 46.5854 9.07736 44.4893 9.03664C41.7953 8.91331 40.9346 8.88397 34.0753 8.88397C27.2159 8.88397 26.3533 8.91264 23.6579 9.03664" fill="white"/>
</g>
<defs>
<radialGradient id="paint0_radial_131_115" cx="0" cy="0" r="1" gradientUnits="userSpaceOnUse" gradientTransform="translate(4.40066 66.5107) scale(86.3347)">
<stop offset="0.09" stop-color="#FA8F21"/>
<stop offset="0.78" stop-color="#D82D7E"/>
</radialGradient>
<radialGradient id="paint1_radial_131_115" cx="0" cy="0" r="1" gradientUnits="userSpaceOnUse" gradientTransform="translate(47.1013 64.3267) scale(75.9753)">
<stop offset="0.64" stop-color="#8C3AAA" stop-opacity="0"/>
<stop offset="1" stop-color="#8C3AAA"/>
</radialGradient>
<clipPath id="clip0_131_115">
<rect width="68" height="68" fill="white"/>
</clipPath>
</defs>
</svg>
