<svg width="79" height="79" viewBox="0 0 79 79" fill="none" xmlns="http://www.w3.org/2000/svg">
<g clip-path="url(#clip0_131_120)">
<path d="M67.2304 11.4803C59.8323 4.08144 49.995 0.00451423 39.514 0C17.9164 0 0.340289 17.5602 0.331643 39.1442C0.329126 46.0436 2.13291 52.7785 5.56141 58.7151L0.00268555 79L20.7737 73.5567C26.4965 76.6759 32.94 78.3196 39.4972 78.3222H39.5138H39.514C61.1081 78.3222 78.6869 60.7589 78.6961 39.1759C78.6997 28.7153 74.6275 18.8797 67.2304 11.4803ZM39.514 71.7106H39.5013C33.6566 71.7075 27.9251 70.1393 22.9258 67.1745L21.7361 66.4697L9.4101 69.6995L12.701 57.6932L11.9258 56.4623C8.66559 51.2815 6.94447 45.2944 6.94692 39.1467C6.95409 21.2068 21.5627 6.61186 39.5263 6.61186C48.2253 6.61547 56.4013 10.0042 62.5504 16.154C68.6991 22.3036 72.0828 30.4788 72.0802 39.1732C72.0726 57.1137 57.4635 71.7106 39.514 71.7106Z" fill="#E0E0E0"/>
<path d="M1.80127 76.7492L7.10608 57.3909C3.83335 51.7254 2.11229 45.2978 2.11435 38.7148C2.12294 18.1171 18.8963 1.35956 39.5056 1.35956C49.5083 1.36407 58.8964 5.25456 65.955 12.3157C73.0151 19.3767 76.9008 28.7623 76.8968 38.744C76.8882 59.3422 60.1138 76.1012 39.5071 76.1012C39.5081 76.1012 39.5056 76.1012 39.5071 76.1012H39.4904C33.2328 76.0992 27.0841 74.5293 21.6231 71.5548L1.80127 76.7492Z" fill="url(#paint0_linear_131_120)"/>
<path fill-rule="evenodd" clip-rule="evenodd" d="M29.8314 22.5256C29.1065 20.9149 28.3433 20.8826 27.6536 20.8544C27.0896 20.8303 26.4438 20.8317 25.799 20.8317C25.1537 20.8317 24.1052 21.0741 23.2185 22.0419C22.3312 23.0098 19.8308 25.3495 19.8308 30.1081C19.8308 34.8672 23.2991 39.4656 23.7826 40.1114C24.2665 40.7563 30.4777 50.8337 40.3145 54.7106C48.4897 57.9326 50.1533 57.2917 51.9278 57.1304C53.7023 56.9692 57.6535 54.7912 58.4601 52.5326C59.2667 50.2744 59.2667 48.3388 59.0247 47.9342C58.7828 47.5311 58.1375 47.2893 57.1696 46.8056C56.2017 46.322 51.4439 43.9817 50.5566 43.6593C49.6694 43.3368 49.0241 43.1756 48.3789 44.144C47.7336 45.1113 45.8799 47.2893 45.3153 47.9342C44.7507 48.5806 44.1861 48.6612 43.2182 48.1775C42.2503 47.6924 39.1333 46.6721 35.4357 43.3771C32.5587 40.8136 30.6163 37.6476 30.0517 36.6793C29.4871 35.712 29.9912 35.188 30.4767 34.7058C30.9112 34.2725 31.4446 33.5768 31.9285 33.012C32.4115 32.4472 32.5728 32.0441 32.8954 31.3992C33.218 30.7533 33.0567 30.1886 32.8147 29.7049C32.5728 29.2212 30.6919 24.4381 29.8314 22.5256Z" fill="white"/>
<path d="M66.9103 11.3559C59.5971 4.04195 49.8727 0.0119029 39.5122 0.00732422C18.1624 0.00732422 0.788078 17.3659 0.779496 38.7022C0.776979 45.5225 2.56005 52.1799 5.94918 58.0484L0.454346 78.1004L20.9869 72.7196C26.6441 75.8029 33.0136 77.4278 39.4955 77.4303H39.512H39.5122C60.8584 77.4303 78.2353 60.0687 78.2444 38.7334C78.2479 28.393 74.2225 18.6704 66.9103 11.3559ZM39.5122 70.8948H39.4996C33.7219 70.8918 28.0562 69.3415 23.1143 66.4108L21.9382 65.714L9.75374 68.9067L13.0068 57.0383L12.2405 55.8215C9.01775 50.7002 7.31638 44.7818 7.31889 38.7048C7.32593 20.9708 21.7668 6.54341 39.5243 6.54341C48.1235 6.54696 56.2055 9.89683 62.2841 15.9759C68.3622 22.0551 71.707 30.1363 71.7045 38.731C71.6969 56.4654 57.2555 70.8948 39.5122 70.8948Z" fill="white"/>
</g>
<defs>
<linearGradient id="paint0_linear_131_120" x1="39.349" y1="76.7492" x2="39.349" y2="1.35968" gradientUnits="userSpaceOnUse">
<stop stop-color="#20B038"/>
<stop offset="1" stop-color="#60D66A"/>
</linearGradient>
<clipPath id="clip0_131_120">
<rect width="78.6985" height="79" fill="white"/>
</clipPath>
</defs>
</svg>
